# xmcd CD database file
#
# Track frame offsets:
#	183
#	9243
#	19905
#	32930
#	43415
#	54425
#	79725
#	93263
#	103910
#	138870
#	157993
#	179190
#	195823
#	232770
#	257513
#	293733
#	308270
#
# Disc length: 4274 seconds
#
# Revision: 9
# Processed by: cddbd v1.5.2PL0 Copyright (c) Steve Scherf et al.
# Submitted via: CdAid (MTCDDB.DLL V2003.12.21)
#
DISCID=d010b011,d410b011
DTITLE=Dr. John - The Dr. John Anthology - Mos' Scocious (Disc-1)
DYEAR=1993
DGENRE=R&B
TTITLE0=Bad Neighborhood - Ronnie and Delinquents
TTITLE1=Morgus The Magnificent - Morgus and The 3 Ghouls
TTITLE2=Storm Warning - Mac Rebennack
TTITLE3=Sahara - Mac Rebennack and His Orch.
TTITLE4=Down The Road - Roland Stone
TTITLE5=Gris-Gris Gumbo Ya Ya
TTITLE6=Mama Roux
TTITLE7=Jump Sturdy
TTITLE8=I Walk On Guilded Splinters
TTITLE9=Black Widow Spider
TTITLE10=Loop Garoo
TTITLE11=Wash, Mama, Wash
TTITLE12=Mardi Gras Day
TTITLE13=Familiar Reality - Opening
TTITLE14=Zu Zu Mamou
TTITLE15=Mess Around
TTITLE16=Somebody Changed The Lock
EXTD=The Dr. John Anthology\nMos' Scocious (Disk 1]\n\nRHINO ID3G:  14 YEAR: 1
EXTD=993
EXTT0=
EXTT1=
EXTT2=
EXTT3=
EXTT4=
EXTT5=
EXTT6=
EXTT7=
EXTT8=
EXTT9=
EXTT10=
EXTT11=
EXTT12=
EXTT13=
EXTT14=
EXTT15=
EXTT16=
PLAYORDER=
